<?xml version="1.0" encoding="UTF-8"?>
<svg xmlns="http://www.w3.org/2000/svg" viewBox="0 0 307.59 92.85">
  <defs>
    <style>
      .cls-1 {
        fill: #003660;
      }

      .cls-2 {
        fill: #fff;
      }

      .cls-3 {
        fill: #f5c14c;
      }
    </style>
  </defs>
  <g id="Layer_4" data-name="Layer 4">
    <path class="cls-3" d="M10.64,82.32c-.03-1.13-2.73-1.19-1.09-3.09,1.39-1.6,2.52-2.26,3.94-.19,.74,1.08,2.55,1.46,2.14,3.28h-5Z"/>
    <path class="cls-3" d="M20.26,77.01c-1.46-.93-2.67-2.34-3.65-3.82-.68-1.03,.9-1.28,1.42-1.9,.42-.5,1-.86,1.55-1.24,1.07-.73,2.12-2.55,3.16-2,1.33,.7,2.09,2.46,3.08,3.78,.13,.18,.18,.46,.16,.69-.04,.41-5.16,4.48-5.71,4.48Z"/>
    <path class="cls-3" d="M31.28,68.86c-1.33-1.09-2.05-2.71-2.78-4.22-.59-1.21,.92-1.25,1.56-1.73,.59-.44,1.28-.75,1.94-1.1,3.55-1.9,3.51-1.88,5.21,1.83,.55,1.2,.59,1.9-.77,2.51-1.57,.71-3.04,1.67-4.55,2.51-.14,.08-.31,.11-.59,.2Z"/>
    <path class="cls-3" d="M50.56,59.85c.18,1.05-.58,1.22-1.33,1.43-1.12,.3-2.32,.46-3.33,.98-2.05,1.06-2.95,.29-3.56-1.69-.91-2.95-.98-2.93,2.07-3.75,.48-.13,.95-.28,1.43-.43,3.58-1.06,4.68-.26,4.71,3.46Z"/>
    <path class="cls-3" d="M64.13,56.91c.37,1.95-.33,2.86-2.39,2.6-.72-.09-1.48,.11-2.23,.19-2.91,.31-3.05,.08-3.39-2.73-.26-2.12,.49-2.86,2.54-2.65,.99,.1,2.01,.1,2.99,0,2.05-.23,3.05,.44,2.47,2.6Z"/>
    <path class="cls-3" d="M72.06,55.35c1.5,.42,2.79,.74,4.05,1.13,2.8,.86,3.42,2.34,1.47,4.58-1.58,1.83-3.46-.22-5.19-.45-.8-.11-2.58,.2-2.23-1.56,.27-1.37-.37-3.46,1.9-3.7Z"/>
    <path class="cls-3" d="M85.36,59.98c2.12,1.01,4.42,1.72,6.22,3.08,1.08,.81-.44,2.15-.82,3.25-.32,.9-.88,1.05-1.74,.62-1.25-.63-2.55-1.18-3.81-1.78-1.99-.94-2.26-3.61-.5-4.92,.18-.13,.43-.17,.65-.25Z"/>
    <path class="cls-3" d="M98.32,66.02c2.02,.87,4.15,1.48,5.91,2.66,1.3,.87-.02,2.25-.34,3.36-.33,1.12-1.13,.58-1.81,.32-1.31-.51-2.64-.98-3.91-1.56-.7-.32-2.04-.26-1.92-1.21,.15-1.17,.9-2.26,1.45-3.37,.07-.14,.43-.14,.63-.19Z"/>
    <path class="cls-3" d="M118.09,73.91c.25,1.8-.72,2.18-2.24,1.92-1.22-.22-2.45-.41-3.68-.62-1.43-.25-2.64-.4-2.06-2.56,.54-1.99,1.46-2.04,3.06-1.51,1.01,.33,2.11,.5,3.18,.55,1.53,.08,2.1,.76,1.73,2.22Z"/>
    <path class="cls-3" d="M127.92,76.32c-.75,0-1.5-.04-2.25,0-1.24,.09-1.68-.53-1.5-1.65,.15-.94-.4-2.34,1.42-2.31,1.5,.03,3.01,.11,4.49-.06,1.79-.21,2.31,.6,2.4,2.21,.11,1.89-1.18,1.66-2.32,1.72-.75,.04-1.5,0-2.24,0,0,.03,0,.06,0,.08Z"/>
    <path class="cls-3" d="M139.94,74.89c-1.47,.23-1.36-.95-1.59-1.76-.24-.84-.36-1.6,.87-1.86,1.77-.37,3.53-.86,5.28-1.34,1.52-.42,1.52,.83,1.89,1.67,.43,1,.09,1.5-.97,1.75-1.84,.45-3.65,1.01-5.48,1.52Z"/>
    <path class="cls-3" d="M157.74,64.47c1.23-.12,1.29,.82,1.66,1.39,.43,.66,.35,1.26-.42,1.64-1.77,.89-3.54,1.79-5.33,2.66-.79,.38-1.26-.08-1.52-.78-.24-.65-1.08-1.48-.22-1.98,1.92-1.13,3.98-2.02,5.82-2.93Z"/>
    <path class="cls-3" d="M172.59,60.64c-1.09,1.14-2.62,1.55-4,2.11-1.06,.43-2.18,1.77-3.33,.8-.81-.68-1.83-2,.3-2.76,1.55-.55,3.06-1.25,4.53-1.98,1.95-.97,1.92,.72,2.5,1.83Z"/>
    <path class="cls-3" d="M200.07,59.51c-.49,.66-.72,1.72-1.64,1.33-1.89-.8-3.74-1.68-5.75-2.19-.73-.19-.59-.88-.52-1.46,.09-.74,.56-.97,1.23-.84,2.21,.41,4.26,1.23,6.15,2.45,.24,.15,.37,.48,.53,.71Z"/>
    <path class="cls-3" d="M204.76,63.17c.72,.56,1.03,.79,1.33,1.05,1.31,1.14,2.6,2.31,3.92,3.43,.6,.51,1.19,.97,.51,1.82-.59,.73-1.15,.42-1.7-.04-1.53-1.27-3.05-2.54-4.57-3.82-.32-.27-.6-.58-.3-1.05,.27-.42,.51-.86,.82-1.39Z"/>
    <path class="cls-3" d="M218.09,71.68c1.29,.31,3.14,.77,5,1.19,.57,.13,.89,.42,.84,1.01-.07,.79-.64,.93-1.26,.8-1.86-.4-3.71-.84-5.56-1.3-.58-.14-1.46-.05-1.11-1.16,.26-.84,.8-.96,2.09-.55Z"/>
    <path class="cls-3" d="M234.19,75.3c-1.07,0-2.14,.01-3.21,0-.43,0-.82-.16-.86-.67-.04-.65,.38-.85,.94-.84,1.97,.04,3.95,.09,5.92,.16,.5,.02,1.04,.12,1.01,.79-.03,.69-.62,.66-1.09,.67-.9,.02-1.81,0-2.71,0,0-.03,0-.07,0-.1Z"/>
    <path class="cls-3" d="M248.02,74.55c.91,0,1.81-.03,2.72,.01,.53,.02,1.3-.1,1.26,.75-.03,.68-.7,.55-1.16,.55-1.81-.01-3.62-.05-5.44-.09-.5-.01-1.11-.03-1.12-.67-.02-.85,.72-.73,1.27-.74,.82-.02,1.65,0,2.47,0,0,.06,0,.13,0,.19Z"/>
    <path class="cls-3" d="M178.04,57.69c2.72,.37,5.36-.26,8.03-.55,.04,.68-.24,1.07-.96,1.14-1.95,.21-3.92,.37-5.85,.71-1.25,.22-1.09-.61-1.22-1.29Z"/>
    <path class="cls-3" d="M266.21,76.41c-2.56,.64-5.02,.22-7.45-.67,2.54-.49,4.99,.17,7.45,.67Z"/>
    <path class="cls-3" d="M278.59,78.32c-1.93-.17-3.9-.16-5.73-1.03,1.92,.25,4-.52,5.72,1.04h0Z"/>
    <polygon class="cls-3" points="278.59 78.33 278.65 78.38 278.59 78.32 278.59 78.33"/>
  </g>
  <g id="Layer_3" data-name="Layer 3">
    <path class="cls-1" d="M160.02,33.89c.01-9.36,7.87-18.11,18.42-19.34,.81-.09,2.03-.57,1.97,1-.04,1.09,.69,2.64-1.44,2.75-12.82,.64-20.79,16.85-11.09,28.04,1.21,1.4-.05,1.62-.58,2.27-.67,.81-1.32,1.14-2.19,.11-3.34-3.97-5.2-8.45-5.09-14.82Z"/>
    <path class="cls-1" d="M293.54,42.33c0,4.14-2.74,7.1-6.63,7.15-4.1,.05-6.82-2.8-6.81-7.15,0-4.31,2.81-7.29,6.81-7.22,3.8,.06,6.63,3.14,6.63,7.22Z"/>
    <path class="cls-1" d="M180.46,49.99c-8.27,0-14.88-6.65-14.85-14.93,.03-8.22,6.77-14.98,14.92-14.97,8.12,.02,14.89,6.87,14.88,15.04-.01,8.26-6.65,14.85-14.95,14.85Zm1.42-5.85c2.06-5.55,4.02-10.82,6.19-16.65-5.93,2.25-11.19,4.24-16.45,6.23,1.92,.9,3.69,1.4,5.48,1.72,1.87,.34,2.79,1.31,3.1,3.21,.28,1.76,.56,3.59,1.69,5.49Z"/>
    <path class="cls-1" d="M85.73,35.53c.03,8-5.51,13.97-13.05,14.05-7.63,.08-13.18-5.68-13.26-13.76-.07-8.21,5.47-14.23,13.1-14.23,7.49,0,13.17,6,13.21,13.94Z"/>
  </g>
  <g id="Layer_2" data-name="Layer 2">
    <path class="cls-2" d="M178.04,57.69c-8.89-1.48-15.27-6.17-18.63-14.66-4.31-10.88,1.1-23.83,11.93-28.63,10.98-4.86,24.1-.05,29.33,10.59,6.13,12.46-.03,27.99-14.6,32.14-2.67,.3-5.32,.93-8.03,.55Zm2.42-7.7c8.3,0,14.94-6.6,14.95-14.85,.01-8.17-6.77-15.03-14.88-15.04-8.15-.02-14.89,6.75-14.92,14.97-.03,8.28,6.58,14.93,14.85,14.93Zm-20.44-16.1c-.11,6.37,1.75,10.86,5.09,14.82,.87,1.04,1.53,.71,2.19-.11,.52-.64,1.79-.87,.58-2.27-9.7-11.2-1.73-27.4,11.09-28.04,2.13-.11,1.4-1.66,1.44-2.75,.06-1.57-1.15-1.09-1.97-1-10.55,1.23-18.41,9.98-18.42,19.34Z"/>
    <path class="cls-2" d="M29.45,44.67c1.86-4.43,3.57-8.47,5.26-12.51,1.66-3.99,3.36-7.96,4.91-11.99,.66-1.72,1.62-2.32,3.51-2.26,4.62,.16,4.63,.05,4.63,4.77,0,9.49-.07,18.97,.05,28.46,.03,2.08-.82,2.22-2.49,2.22-1.67,0-2.53-.15-2.49-2.23,.13-8.31,.05-16.62-.5-25.11-1.41,3.35-2.83,6.7-4.21,10.06-2.12,5.14-4.23,10.29-6.32,15.45-.43,1.05-.81,1.81-2.24,1.84-1.47,.02-2-.62-2.49-1.83-3.15-7.77-6.35-15.52-9.56-23.27-.33-.79-.42-1.75-1.33-2.28-.52,.88-.27,1.8-.27,2.67-.02,7.57-.09,15.15,.03,22.72,.03,2.11-1.08,1.95-2.49,1.96-1.42,0-2.47,.14-2.45-1.96,.11-10.48,.08-20.97,.02-31.45,0-1.47,.31-1.99,1.91-2,5.32-.02,5.27-.08,7.37,4.98,2.95,7.12,5.97,14.22,9.15,21.77Z"/>
    <path class="cls-2" d="M72.44,17.01c10.53-.05,18.28,7.71,18.46,18.46,.18,10.58-7.65,18.65-18.16,18.73-10.57,.08-18.52-7.75-18.57-18.31-.05-10.83,7.7-18.83,18.27-18.88Zm13.29,18.52c-.03-7.94-5.72-13.94-13.21-13.94-7.63,0-13.17,6.02-13.1,14.23,.07,8.07,5.62,13.83,13.26,13.76,7.53-.07,13.08-6.04,13.05-14.05Z"/>
    <path class="cls-2" d="M128.99,35.47c0-5.24,.04-10.48-.03-15.72-.02-1.42,.43-1.83,1.84-1.82,6.41,.07,12.82,.1,19.23,0,2.22-.04,1.52,1.41,1.6,2.5,.08,1.16,.26,2.24-1.66,2.18-4.74-.14-9.49,0-14.24-.07-1.49-.02-2.11,.36-2.02,1.94,.12,2.07,.13,4.16,0,6.23-.11,1.7,.35,2.32,2.17,2.26,4.24-.14,8.5,.05,12.74-.09,1.84-.06,1.99,.76,1.96,2.21-.03,1.43,.1,2.53-1.99,2.45-4.32-.16-8.66,0-12.99-.08-1.38-.02-1.94,.36-1.89,1.81,.1,2.49,.12,4.99,0,7.48-.08,1.59,.55,1.97,2.02,1.94,4.91-.07,9.83,.09,14.74-.08,2.1-.07,2.18,.86,2.23,2.5,.05,1.76-.49,2.25-2.24,2.22-6.41-.1-12.82-.13-19.23,.01-2,.04-2.31-.66-2.28-2.42,.11-5.15,.04-10.31,.04-15.47Z"/>
    <path class="cls-2" d="M108.98,45.91c3-7.98,6.02-15.95,8.98-23.94,1.66-4.46,1.64-4.49,6.74-3.74-2.46,6.28-4.89,12.52-7.34,18.75-1.88,4.79-3.83,9.55-5.62,14.38-.55,1.48-1.27,2.09-2.88,1.99-1.46-.08-2.56-.04-3.23-1.82-3.97-10.56-8.08-21.07-12.18-31.58-.55-1.41-.54-1.94,1.29-2.05,2.54-.15,3.93,.36,4.82,3.11,2.51,7.73,5.43,15.32,8.21,22.96,.25,.67,.25,1.52,1.2,1.96Z"/>
    <path class="cls-2" d="M280,50.25c.69,2.67-.85,2.41-2.34,2.49-1.96,.1-1.59-1.19-1.59-2.31,0-9.55,.03-19.11-.04-28.66-.01-1.6,.38-2.15,2.05-2.14,1.63,0,2.11,.45,2.06,2.1-.12,4.07-.04,8.14-.04,12.8,2.53-2.51,5.32-3.38,8.46-3.05,3.16,.33,5.69,1.76,7.46,4.41,2.95,4.42,2.24,11.16-1.51,14.69-3.79,3.58-9.21,3.58-14.5-.33Zm13.54-7.92c0-4.08-2.83-7.15-6.63-7.22-4-.07-6.8,2.91-6.81,7.22,0,4.35,2.71,7.2,6.81,7.15,3.88-.05,6.63-3.01,6.63-7.15Z"/>
    <path class="cls-2" d="M226.18,50.08c-2.97,2.79-5.79,3.73-9.16,2.87-2.81-.72-4.51-2.45-4.99-5.24-.83-4.86-.23-9.77-.35-14.66-.04-1.71,1.37-.99,2.22-1.1,.96-.13,1.78-.09,1.75,1.33-.07,3.49-.07,6.97-.01,10.46,.07,4.14,2.18,6.21,5.75,5.67,2.42-.37,3.81-1.88,4.29-4.23,.74-3.62,.25-7.28,.32-10.92,.03-1.5,.05-2.41,2.05-2.4,2.05,0,2.01,1.02,2,2.47-.05,5.23,.02,10.46-.05,15.69-.01,1.02,.84,2.73-1.41,2.69-1.44-.03-3.3,.54-2.4-2.62Z"/>
    <path class="cls-2" d="M263.73,31.41c2.04,.1,4.1,.37,5.75,1.85,.57,.51,1.7,1.15,.78,1.93-.84,.73-1.61,2.52-3.24,1.29-1.5-1.13-3.06-1.66-4.88-1.13-1,.29-1.87,.78-1.97,1.97-.09,1.06,.57,1.65,1.39,2.17,1.24,.79,2.66,.9,4.03,1.22,4,.95,5.92,2.91,5.88,6.03-.04,3.21-2.19,5.45-6.04,6.22-3.42,.69-6.64,.37-9.31-2.14-.52-.49-1.62-1.18-.4-1.92,.93-.56,1.44-2.66,3.14-1.13,1.59,1.43,3.41,2.02,5.53,1.58,1.3-.27,2.47-.85,2.66-2.25,.19-1.41-.96-2.03-2.08-2.44-1.09-.4-2.23-.65-3.35-.92-4.2-1.02-5.93-2.91-5.75-6.29,.17-3.25,2.63-5.49,6.56-5.96,.41-.05,.83-.06,1.31-.09Z"/>
    <path class="cls-2" d="M245.98,53.3c-5.13-.03-9.13-2.72-10.48-6.77-1.62-4.89-.27-10.25,3.27-12.95,3.53-2.69,9.22-2.94,12.92-.48,.74,.5,2.43,.96,1.13,2.27-.8,.8-1.37,2.85-3.46,1.14-2.58-2.11-5.82-1.82-8,.18-2.36,2.17-2.96,6.4-1.32,9.47,1.35,2.53,4.29,3.81,7.23,3.18,.93-.2,1.73-.64,2.39-1.27,.75-.72,1.22-.75,2.02,.03,1.96,1.9,1.98,2.38-.35,3.76-1.77,1.04-3.76,1.26-5.36,1.43Z"/>
    <path class="cls-2" d="M181.88,44.14c-1.13-1.89-1.4-3.72-1.69-5.49-.31-1.9-1.23-2.88-3.1-3.21-1.79-.32-3.55-.81-5.48-1.72,5.26-1.99,10.51-3.99,16.45-6.23-2.17,5.83-4.13,11.11-6.19,16.65Z"/>
  </g>
</svg>